<svg id="Layer_1" data-name="Layer 1" xmlns="http://www.w3.org/2000/svg" width="348.63mm" height="231.99mm" viewBox="0 0 988.24 657.6"><defs><style>.cls-1{fill:#333e48;}.cls-2,.cls-3,.cls-4,.cls-5{fill:#00c1de;stroke:#333e48;stroke-miterlimit:10;stroke-width:5px;}.cls-2{opacity:0.4;}.cls-3{opacity:0.6;}.cls-4{opacity:0.8;}</style></defs><title>logo_ST4</title><path class="cls-1" d="M520.31,317.08h16.78v6.68a22.21,22.21,0,0,1,17.81-8.56,21.16,21.16,0,0,1,18.66,10.61c6-8.56,15.07-10.61,21.4-10.61,8.73,0,16.44,4.11,20.55,11.3,1.37,2.4,3.76,7.7,3.76,18.15v44.51H602.5V349.44c0-8.05-.86-11.3-1.55-12.84-1-2.74-3.59-6.33-9.58-6.33a12.38,12.38,0,0,0-9.93,5.3c-2.91,4.11-3.26,10.28-3.26,16.44v37.15H561.4V349.44c0-8.05-.85-11.3-1.54-12.84-1-2.74-3.59-6.33-9.59-6.33a12.41,12.41,0,0,0-9.93,5.3c-2.91,4.11-3.25,10.28-3.25,16.44v37.15H520.31Zm-58.09,0H479v6.51a28.59,28.59,0,0,1,7-6,19.32,19.32,0,0,1,10.27-2.4,24.91,24.91,0,0,1,13.19,3.42l-6.85,15.24a15.18,15.18,0,0,0-8.56-2.57c-3.6,0-7.19.52-10.45,3.94C479,340.2,479,347,479,351.84v37.32H462.22Zm-76.14,36.3c0,12.5,7.88,22.94,20,22.94,10.62,0,20.38-7.7,20.38-22.77,0-15.75-9.76-23.28-20.38-23.28-12.15,0-20,10.27-20,23.11m39.38-36.3h16.78v72.08H425.46v-7.53a27.67,27.67,0,0,1-21.57,9.76C381.63,391.39,369,372.9,369,353c0-23.46,16.1-37.84,35.1-37.84a26.28,26.28,0,0,1,21.4,10.27Z"/><path class="cls-1" d="M162.38,515.09,174,441.71l26.68,58.68,27.21-58.79,10.84,73.49h-7.92l-6.57-48.37L200.53,518l-23.35-51.29-6.88,48.37Z"/><path class="cls-1" d="M250.15,493.62c0-13.14,9.69-22.83,22.93-22.83S296,480.48,296,493.62s-9.8,22.72-22.93,22.72S250.15,506.75,250.15,493.62Zm7.71,0c0,10.63,7.51,16.05,15.22,16.05s15.22-5.53,15.22-16.05-7.3-16.16-15.22-16.16S257.86,483.09,257.86,493.62Z"/><path class="cls-1" d="M307.48,471.83H315v4.69c.73-1.15,4-5.73,9.8-5.73a15.77,15.77,0,0,1,6.67,1.77l-3.54,6.78a7.7,7.7,0,0,0-4.38-1.46,7.25,7.25,0,0,0-6,2.71c-1.26,1.66-2.51,4.58-2.51,11.67v22.83h-7.5Z"/><path class="cls-1" d="M374.19,504a26,26,0,0,1-5.31,7,21,21,0,0,1-14.39,5.32c-10.42,0-21.37-6.57-21.37-22.62,0-12.92,7.92-22.93,20.95-22.93,8.45,0,13.76,4.17,16.37,7.92s4.27,10.53,4.06,16.26H340.84c.1,9,6.25,14.7,13.75,14.7a13.16,13.16,0,0,0,8.87-3.13,17.22,17.22,0,0,0,4.48-5.94Zm-7.4-15.32c-1.25-6.78-6.36-11.26-12.72-11.26s-11.57,4.79-12.71,11.26Z"/><path class="cls-1" d="M393.48,439.1v76H386v-76Z"/><path class="cls-1" d="M415.16,439.1v76h-7.51v-76Z"/><path class="cls-1" d="M426.62,493.62c0-13.14,9.7-22.83,22.94-22.83s22.93,9.69,22.93,22.83-9.8,22.72-22.93,22.72S426.62,506.75,426.62,493.62Zm7.72,0c0,10.63,7.5,16.05,15.22,16.05s15.21-5.53,15.21-16.05-7.29-16.16-15.21-16.16S434.34,483.09,434.34,493.62Z"/><path class="cls-1" d="M514.39,445.56c7,0,12.82.84,17.51,4.9,5.11,4.38,6.36,10.53,6.36,14.91,0,9.8-6.15,19.49-22,19.49h-6.78v30.23h-7.71V445.56Zm-4.9,32h6.36c9.17,0,14.7-4.58,14.7-12.61,0-11.05-10.32-12.09-15.32-12.09h-5.74Z"/><path class="cls-1" d="M547.44,471.83h7.5v4.69c.73-1.15,4-5.73,9.8-5.73a15.84,15.84,0,0,1,6.67,1.77l-3.54,6.78a7.7,7.7,0,0,0-4.38-1.46,7.28,7.28,0,0,0-6,2.71c-1.25,1.66-2.5,4.58-2.5,11.67v22.83h-7.5Z"/><path class="cls-1" d="M573.08,493.62c0-13.14,9.69-22.83,22.93-22.83s22.93,9.69,22.93,22.83-9.79,22.72-22.93,22.72S573.08,506.75,573.08,493.62Zm7.71,0c0,10.63,7.51,16.05,15.22,16.05s15.22-5.53,15.22-16.05-7.3-16.16-15.22-16.16S580.79,483.09,580.79,493.62Z"/><path class="cls-1" d="M663.56,471.83h7.5v42.22c0,4.69,0,11.36-4.17,17-3.23,4.38-9.17,8-17.3,8-7.4,0-12.51-2.91-15.43-5.83a19.49,19.49,0,0,1-5.63-14h7.4a13.58,13.58,0,0,0,3.34,9c3.13,3.44,7.09,4.17,10.42,4.17,5.32,0,9-1.87,11.47-6,2.19-3.55,2.4-7.4,2.4-11.05V509a18.22,18.22,0,0,1-14.8,7.3A20.73,20.73,0,0,1,634,510.5c-2.91-2.92-6.25-8.34-6.25-17.09,0-8.44,3.13-13.66,6.25-16.78a21.32,21.32,0,0,1,14.81-5.84,18,18,0,0,1,14.8,7.19Zm-23.77,9.69a16.48,16.48,0,0,0-4.38,11.89c0,3.75.73,8.86,4.9,12.71a13.1,13.1,0,0,0,9.28,3.55,12.81,12.81,0,0,0,9.49-3.65,17.57,17.57,0,0,0,4.9-12.51c0-5.11-1.88-9.59-4.59-12.19a13.86,13.86,0,0,0-9.8-3.86A13.43,13.43,0,0,0,639.79,481.52Z"/><path class="cls-1" d="M685.24,471.83h7.5v4.69c.73-1.15,4-5.73,9.8-5.73a15.77,15.77,0,0,1,6.67,1.77l-3.54,6.78a7.7,7.7,0,0,0-4.38-1.46,7.25,7.25,0,0,0-6,2.71c-1.25,1.66-2.51,4.58-2.51,11.67v22.83h-7.5Z"/><path class="cls-1" d="M747.05,471.83h7.51v43.26h-7.51V509a18.22,18.22,0,0,1-14.8,7.3c-10.94,0-21-7.71-21-22.93,0-14.91,10-22.62,21-22.62a17.88,17.88,0,0,1,14.8,7.19Zm-28.14,21.58c0,9.28,5.21,16.26,14.18,16.26,9.17,0,14.38-7.61,14.38-16.16,0-11.15-7.71-16.05-14.38-16.05C725.68,477.46,718.91,482.88,718.91,493.41Z"/><path class="cls-1" d="M768.73,471.83h7.51v4.59A12.56,12.56,0,0,1,787,470.79a13,13,0,0,1,11.78,7,14.45,14.45,0,0,1,13-7c12.82,0,14.07,10.73,14.07,16.89v27.41h-7.51V488.82c0-4.9-.62-11.36-7.71-11.36-8.65,0-9.59,8.34-9.59,13.55v24.08h-7.51V489.45c0-3,.11-12-7.81-12-8.55,0-9.49,8.86-9.49,14.07v23.56h-7.51Z"/><rect class="cls-2" x="467.83" y="198.69" width="52.61" height="39.98"/><rect class="cls-2" x="520.39" y="198.69" width="52.61" height="39.98"/><rect class="cls-3" x="467.81" y="158.52" width="52.61" height="39.98"/><rect class="cls-3" x="415.26" y="198.69" width="52.61" height="39.98"/><rect class="cls-4" x="415.24" y="158.52" width="52.61" height="39.98"/><rect class="cls-3" x="520.37" y="158.52" width="52.61" height="39.98"/><rect class="cls-5" x="467.81" y="118.54" width="52.61" height="39.98"/><rect class="cls-5" x="415.24" y="118.54" width="52.61" height="39.98"/><rect class="cls-4" x="520.37" y="118.54" width="52.61" height="39.98"/></svg>