<svg id="Layer_1" data-name="Layer 1" xmlns="http://www.w3.org/2000/svg" width="468.3mm" height="102.09mm" viewBox="0 0 1327.45 289.4"><defs><style>.cls-1{fill:#333e48;}.cls-2,.cls-3,.cls-4,.cls-5{fill:#00c1de;stroke:#333e48;stroke-miterlimit:10;stroke-width:5px;}.cls-2{opacity:0.4;}.cls-3{opacity:0.6;}.cls-4{opacity:0.8;}</style></defs><title>logo_ST4</title><path class="cls-1" d="M468.62,111.16H485.4v6.68a22.23,22.23,0,0,1,17.81-8.57,21.17,21.17,0,0,1,18.66,10.62c6-8.56,15.07-10.62,21.4-10.62,8.73,0,16.44,4.11,20.55,11.3,1.37,2.4,3.76,7.71,3.76,18.15v44.52H550.81V143.52c0-8.05-.86-11.3-1.55-12.84-1-2.74-3.59-6.34-9.58-6.34a12.39,12.39,0,0,0-9.93,5.31c-2.92,4.11-3.26,10.27-3.26,16.44v37.15H509.71V143.52c0-8.05-.85-11.3-1.54-12.84-1-2.74-3.59-6.34-9.59-6.34a12.41,12.41,0,0,0-9.93,5.31c-2.91,4.11-3.25,10.27-3.25,16.44v37.15H468.62Zm-58.09,0h16.78v6.5a29,29,0,0,1,7-6,19.41,19.41,0,0,1,10.27-2.4,24.93,24.93,0,0,1,13.19,3.43l-6.85,15.24a15.18,15.18,0,0,0-8.56-2.57c-3.6,0-7.19.51-10.45,3.94-4.62,5-4.62,11.81-4.62,16.6v37.33H410.53Zm-76.14,36.3c0,12.49,7.88,22.94,20,22.94,10.62,0,20.38-7.71,20.38-22.77,0-15.75-9.76-23.29-20.38-23.29-12.15,0-20,10.27-20,23.12m39.38-36.3h16.78v72.08H373.77v-7.53a27.68,27.68,0,0,1-21.57,9.76c-22.26,0-34.93-18.5-34.93-38.36,0-23.45,16.1-37.84,35.1-37.84a26.27,26.27,0,0,1,21.4,10.28Z"/><path class="cls-1" d="M603.18,186.38,614.75,113l26.68,58.69,27.21-58.79,10.84,73.49h-7.92L665,138,641.33,189.3,618,138l-6.88,48.37Z"/><path class="cls-1" d="M691,164.9c0-13.13,9.69-22.82,22.93-22.82s22.93,9.69,22.93,22.82-9.8,22.73-22.93,22.73S691,178,691,164.9Zm7.71,0c0,10.64,7.51,16.06,15.22,16.06s15.22-5.53,15.22-16.06-7.3-16.15-15.22-16.15S698.66,154.38,698.66,164.9Z"/><path class="cls-1" d="M748.28,143.12h7.5v4.69c.73-1.15,4-5.73,9.8-5.73a15.77,15.77,0,0,1,6.67,1.77l-3.54,6.77a7.78,7.78,0,0,0-4.38-1.46,7.25,7.25,0,0,0-6,2.72c-1.26,1.66-2.51,4.58-2.51,11.67v22.83h-7.5Z"/><path class="cls-1" d="M815,175.33a25.75,25.75,0,0,1-5.31,7,21,21,0,0,1-14.39,5.32c-10.42,0-21.37-6.57-21.37-22.62,0-12.93,7.92-22.93,21-22.93,8.45,0,13.76,4.17,16.37,7.92s4.27,10.53,4.06,16.26H781.64c.1,9,6.25,14.7,13.76,14.7a13.2,13.2,0,0,0,8.86-3.13,17.32,17.32,0,0,0,4.48-5.94ZM807.59,160c-1.25-6.78-6.36-11.26-12.72-11.26S783.3,153.54,782.16,160Z"/><path class="cls-1" d="M834.28,110.39v76h-7.51v-76Z"/><path class="cls-1" d="M856,110.39v76h-7.51v-76Z"/><path class="cls-1" d="M867.42,164.9c0-13.13,9.7-22.82,22.94-22.82s22.93,9.69,22.93,22.82-9.8,22.73-22.93,22.73S867.42,178,867.42,164.9Zm7.72,0c0,10.64,7.5,16.06,15.22,16.06s15.21-5.53,15.21-16.06-7.29-16.15-15.21-16.15S875.14,154.38,875.14,164.9Z"/><path class="cls-1" d="M955.19,116.85c7,0,12.82.83,17.51,4.9,5.11,4.38,6.36,10.53,6.36,14.91,0,9.79-6.15,19.49-22,19.49h-6.78v30.23h-7.71V116.85Zm-4.9,32h6.36c9.17,0,14.7-4.59,14.7-12.61,0-11.05-10.32-12.09-15.32-12.09h-5.74Z"/><path class="cls-1" d="M988.24,143.12h7.5v4.69c.73-1.15,4-5.73,9.8-5.73a15.84,15.84,0,0,1,6.67,1.77l-3.54,6.77a7.78,7.78,0,0,0-4.38-1.46,7.29,7.29,0,0,0-6,2.72c-1.25,1.66-2.5,4.58-2.5,11.67v22.83h-7.5Z"/><path class="cls-1" d="M1013.88,164.9c0-13.13,9.69-22.82,22.93-22.82s22.93,9.69,22.93,22.82-9.79,22.73-22.93,22.73S1013.88,178,1013.88,164.9Zm7.71,0c0,10.64,7.51,16.06,15.22,16.06S1052,175.43,1052,164.9s-7.3-16.15-15.22-16.15S1021.59,154.38,1021.59,164.9Z"/><path class="cls-1" d="M1104.36,143.12h7.5v42.22c0,4.69,0,11.36-4.17,17-3.23,4.37-9.17,8-17.3,8-7.4,0-12.51-2.92-15.43-5.83a19.49,19.49,0,0,1-5.63-14h7.4a13.58,13.58,0,0,0,3.34,9c3.13,3.44,7.09,4.17,10.42,4.17,5.32,0,9-1.87,11.47-6,2.19-3.55,2.4-7.41,2.4-11v-6.26a18.25,18.25,0,0,1-14.8,7.3,20.73,20.73,0,0,1-14.81-5.84c-2.91-2.92-6.25-8.34-6.25-17.09,0-8.45,3.13-13.66,6.25-16.79a21.36,21.36,0,0,1,14.81-5.83,18,18,0,0,1,14.8,7.19Zm-23.77,9.69a16.48,16.48,0,0,0-4.38,11.89c0,3.75.73,8.86,4.9,12.71a13.1,13.1,0,0,0,9.28,3.55,12.81,12.81,0,0,0,9.49-3.65,17.54,17.54,0,0,0,4.9-12.51c0-5.11-1.88-9.59-4.59-12.2a13.9,13.9,0,0,0-9.8-3.85A13.43,13.43,0,0,0,1080.59,152.81Z"/><path class="cls-1" d="M1126,143.12h7.51v4.69c.73-1.15,4-5.73,9.79-5.73a15.85,15.85,0,0,1,6.68,1.77l-3.55,6.77a7.78,7.78,0,0,0-4.38-1.46,7.25,7.25,0,0,0-6,2.72c-1.25,1.66-2.5,4.58-2.5,11.67v22.83H1126Z"/><path class="cls-1" d="M1187.85,143.12h7.51v43.26h-7.51v-6a18.25,18.25,0,0,1-14.8,7.3c-10.94,0-21-7.72-21-22.93,0-14.91,10-22.62,21-22.62a17.88,17.88,0,0,1,14.8,7.19Zm-28.14,21.58c0,9.27,5.21,16.26,14.18,16.26,9.17,0,14.38-7.61,14.38-16.16,0-11.15-7.71-16.05-14.38-16.05C1166.48,148.75,1159.71,154.17,1159.71,164.7Z"/><path class="cls-1" d="M1209.54,143.12h7.5v4.59a12.56,12.56,0,0,1,10.74-5.63,13,13,0,0,1,11.78,7,14.43,14.43,0,0,1,13-7c12.82,0,14.07,10.73,14.07,16.88v27.42h-7.51V160.11c0-4.9-.62-11.36-7.71-11.36-8.65,0-9.59,8.34-9.59,13.55v24.08h-7.51V160.74c0-3,.11-12-7.81-12-8.55,0-9.49,8.86-9.49,14.07v23.56h-7.5Z"/><rect class="cls-2" x="124.9" y="171.85" width="64.12" height="48.73"/><rect class="cls-2" x="188.96" y="171.85" width="64.12" height="48.73"/><rect class="cls-3" x="124.88" y="122.89" width="64.12" height="48.73"/><rect class="cls-3" x="60.82" y="171.85" width="64.12" height="48.73"/><rect class="cls-4" x="60.79" y="122.89" width="64.12" height="48.73"/><rect class="cls-3" x="188.93" y="122.89" width="64.12" height="48.73"/><rect class="cls-5" x="124.88" y="74.16" width="64.12" height="48.73"/><rect class="cls-5" x="60.79" y="74.16" width="64.12" height="48.73"/><rect class="cls-4" x="188.93" y="74.16" width="64.12" height="48.73"/></svg>